# xmcd
#
# Track frame offsets: 
#        150
#        13160
#        28442
#        44536
#        60176
#        71029
#        91977
#        107160
#        125444
#        139029
#
# Disc length: 2091 seconds
#
# Revision: 0
# Processed by: cddbd v1.5.2PL0 Copyright (c) Steve Scherf et al.
# Submitted via: ExactAudioCopy v1.0b1
#
DISCID=8c08290a
DTITLE=The Doo-Wah Riders - Rope The Wildest Heart
DYEAR=1995
DGENRE=Country
TTITLE0=Tonight she just wants to dance 
TTITLE1=Rope the wildest heart 
TTITLE2=Kiss by kiss
TTITLE3=She's a smoking gun 
TTITLE4=Why oh why 
TTITLE5=Southern comfort 
TTITLE6=Where am I gonna go (when I wanna go crazy) 
TTITLE7=Trick rider 
TTITLE8=Ilene 
TTITLE9=Portland shade of blue 
EXTD=
EXTT0=
EXTT1=
EXTT2=
EXTT3=
EXTT4=
EXTT5=
EXTT6=
EXTT7=
EXTT8=
EXTT9=
PLAYORDER=
